<?xml version="1.0" standalone="no"?>
<!DOCTYPE svg PUBLIC "-//W3C//DTD SVG 20010904//EN"
 "http://www.w3.org/TR/2001/REC-SVG-20010904/DTD/svg10.dtd">
<svg version="1.0" xmlns="http://www.w3.org/2000/svg"
 width="372.000000pt" height="372.000000pt" viewBox="0 0 372.000000 372.000000"
 preserveAspectRatio="xMidYMid meet">
<metadata>
Created by potrace 1.11, written by Peter Selinger 2001-2013
</metadata>
<g transform="translate(0.000000,372.000000) scale(0.100000,-0.100000)"
fill="#000000" stroke="none">
<path d="M245 3712 c-11 -2 -26 -9 -32 -14 -19 -15 -57 -154 -69 -248 -1 -14
-5 -38 -8 -55 -3 -16 -8 -57 -11 -90 -3 -33 -8 -71 -10 -85 -3 -24 -10 -100
-20 -235 -24 -319 -24 -871 0 -1075 3 -25 9 -74 15 -110 5 -36 11 -112 15
-170 3 -58 7 -118 10 -135 65 -390 223 -703 490 -971 377 -381 871 -559 1410
-510 44 4 87 9 95 11 8 2 31 6 50 9 38 6 180 42 220 55 26 9 61 23 70 26 3 2
16 6 30 10 59 19 282 141 370 203 128 90 319 281 410 411 129 184 244 440 277
620 2 14 6 28 8 31 3 4 7 32 11 61 3 30 8 57 10 61 2 3 7 57 10 120 2 62 9
142 14 178 5 36 12 81 14 100 32 231 21 1007 -19 1315 -2 17 -7 53 -10 80 -7
62 -16 133 -21 160 -6 32 -16 89 -19 105 -7 37 -38 120 -49 129 -48 40 -196
-2 -371 -104 -92 -54 -260 -173 -324 -229 -142 -125 -235 -216 -330 -325 -45
-51 -58 -60 -80 -56 -14 3 -46 7 -71 10 -25 3 -60 7 -78 10 -185 23 -600 23
-777 0 -16 -3 -54 -7 -84 -10 -30 -3 -64 -8 -76 -11 -16 -4 -35 11 -90 73
-264 295 -614 559 -835 631 -72 23 -115 30 -145 24z"/>
</g>
</svg>
