<?xml version="1.0" standalone="no"?>
<!DOCTYPE svg PUBLIC "-//W3C//DTD SVG 20010904//EN"
 "http://www.w3.org/TR/2001/REC-SVG-20010904/DTD/svg10.dtd">
<svg version="1.0" xmlns="http://www.w3.org/2000/svg"
 width="500.000000pt" height="500.000000pt" viewBox="0 0 500.000000 500.000000"
 preserveAspectRatio="xMidYMid meet">
<metadata>
Created by potrace 1.11, written by Peter Selinger 2001-2013
</metadata>
<g transform="translate(0.000000,500.000000) scale(0.100000,-0.100000)"
fill="#000000" stroke="none">
<path d="M872 4349 c-29 -11 -50 -60 -72 -174 -20 -97 -22 -115 -45 -310 -2
-22 -7 -74 -10 -115 -3 -41 -8 -97 -10 -125 -18 -204 -24 -713 -12 -915 8
-122 12 -166 27 -270 5 -36 11 -112 15 -170 5 -102 9 -133 22 -195 3 -16 7
-37 8 -45 19 -132 110 -365 210 -535 272 -464 774 -785 1310 -841 449 -46 896
81 1255 359 63 48 224 205 285 277 58 69 156 224 209 334 104 212 161 429 172
654 3 59 9 134 14 167 16 98 18 124 26 245 18 283 1 928 -31 1175 -2 17 -7 53
-10 80 -7 65 -17 135 -21 160 -3 11 -7 36 -10 55 -9 61 -45 168 -60 181 -21
17 -99 14 -159 -6 -75 -25 -215 -97 -302 -156 -72 -48 -191 -135 -203 -149 -3
-3 -36 -32 -75 -65 -87 -75 -202 -190 -279 -278 -45 -52 -63 -66 -80 -62 -11
2 -41 7 -66 9 -25 3 -58 7 -75 10 -217 32 -741 21 -945 -20 -22 -4 -36 7 -95
73 -38 43 -110 118 -160 167 -303 297 -706 532 -833 485z"/>
</g>
</svg>
