<?xml version="1.0" standalone="no"?>
<!DOCTYPE svg PUBLIC "-//W3C//DTD SVG 20010904//EN"
 "http://www.w3.org/TR/2001/REC-SVG-20010904/DTD/svg10.dtd">
<svg version="1.0" xmlns="http://www.w3.org/2000/svg"
 width="121.000000pt" height="121.000000pt" viewBox="0 0 121.000000 121.000000"
 preserveAspectRatio="xMidYMid meet">
<metadata>
Created by potrace 1.11, written by Peter Selinger 2001-2013
</metadata>
<g transform="translate(0.000000,121.000000) scale(0.100000,-0.100000)"
fill="#000000" stroke="none">
<path d="M879 1191 c-14 -11 -21 -30 -23 -56 -1 -22 -9 -53 -18 -70 -8 -16
-19 -45 -23 -63 -4 -18 -14 -36 -23 -39 -10 -3 -26 -14 -38 -25 -20 -18 -22
-18 -65 1 -166 73 -408 -30 -498 -212 -47 -96 -60 -158 -57 -282 2 -101 5
-116 34 -177 35 -73 39 -100 17 -118 -8 -7 -13 -16 -10 -20 6 -10 -40 -30 -70
-30 -34 0 -40 -16 -13 -34 47 -30 112 -39 243 -37 245 6 300 6 345 -2 111 -17
137 -21 167 -19 84 3 193 92 245 201 25 52 31 79 33 145 4 112 -20 183 -93
283 -85 115 -86 120 -51 181 39 69 38 97 -7 138 -34 33 -35 36 -24 69 12 35
27 44 46 25 16 -16 62 5 76 35 16 36 -3 75 -37 75 -25 0 -65 -31 -65 -51 0 -5
-13 -27 -29 -47 -16 -20 -32 -46 -35 -57 -4 -13 -16 -21 -30 -23 -22 -1 -24 2
-21 34 3 32 28 74 44 72 26 -3 40 6 51 32 24 58 -26 108 -71 71z"/>
</g>
</svg>
