<svg id="Layer_3" data-name="Layer 3" xmlns="http://www.w3.org/2000/svg" viewBox="0 0 356.76 370.67"><defs><style>.cls-1{fill:#00aeef;}</style></defs><title>cat</title><path class="cls-1" d="M352.38,196.67c0-96.09-77.9-127.6-174-127.6s-174,31.51-174,127.6a174,174,0,0,0,348,0Z"/><path class="cls-1" d="M220.48,94.59c-16.82,27.26,60.32,42.92,60.22,43.75-.05.35,51.61,101.25,69,65.29,13.75-28.4,5.4-198.19-8.12-203C323-6,254.12,40.07,220.48,94.59Z"/><path class="cls-1" d="M136.28,94.59C153.1,121.85,76,137.51,76.06,138.34c0,.35-51.61,101.25-69,65.29C-6.7,175.23,1.64,5.44,15.17.63,33.78-6,102.64,40.07,136.28,94.59Z"/></svg>