<svg xmlns="http://www.w3.org/2000/svg" viewBox="0 0 431.66 119.77"><defs><style>.cls-1{fill:#d96e38;}.cls-2{fill:#b85f28;}.cls-3{fill:#a35224;}.cls-4{fill:#b2e54e;}.cls-5{fill:#aad346;}.cls-6{fill:#f5f5f3;}.cls-7{fill:#404041;}.cls-8{fill:#fff;}.cls-9{fill:#424242;}</style></defs><title>chigabiga</title><g id="TEXT"><g id="CHIGA"><g id="SHELL"><g id="SHELL-2" data-name="SHELL"><path class="cls-1" d="M59.43,25.58C55,23.67,41.39,22,26.57,31.26,4.74,45,4.46,72.91,5.85,82.69,7.7,95.64,17,100.45,10.66,106c-2,1.76.74,1.48.74,1.48L45.81,98.6,76.15,80.1c7.5-4.82,9.39-18.15,6.44-26.56C82.59,53.54,76.15,32.74,59.43,25.58Z"/><path class="cls-2" d="M31.11,52.6c-18.35,3.76-19.83,24-17.44,34.66,2.07,9.28,8.07,12.91,3.49,16.94-1.45,1.29.54,1.08.54,1.08l25-6.46L64.76,85.38C70.21,81.88,63.7,45.93,31.11,52.6Z"/></g><path class="cls-3" d="M69.49,78.62s-4.44,3-7.4,0-3.33-10.36-9.62-14.43c-6.81-4.41-23.31-8.51-24.42,7.4-.23,3.34.56,4.25,2,5.73s-2.09-13,10-11.47c7.21.93,11.28,6.48,10,11.84-2.9,12-19.43,11.66-25.53,17-2.75,2.42-3.15,9.07-5.37,11.66S62.28,92.49,62.28,92.49l11.84-6.66Z"/></g><g id="BODY"><path class="cls-4" d="M88.73,23.86c9.94,7.28,1.11,14.06-.37,18.13-.52,1.43-2.22,3.33,7.77,15.54,12,14.69,12.21,36.63,0,50.69-6.89,7.94-13.69,10.73-17.76,11.47s-24.05-3.7-30-3.33-21.83,1.48-27,1.48-16.28-1.11-20-4.44.93-1.67,3.89-2.78,12.58-5.18,15.54-9.62,13.69-7,19.24-7.77S65.61,92.12,65.61,77s-4.07-28.12-3.33-36.26,4.44-13.32,7-15.17S83.18,19.79,88.73,23.86Z"/><path class="cls-4" d="M97.82,4.83c-2.33-1.35-5.59-.08-7.27,2.84a7.18,7.18,0,0,0-1,3.57l-1.95,1.52a23.75,23.75,0,0,0-5.18,10c-1.11,5.55,4.07,0,4.07,0s-.37-6.29,3.33-8.88l.29-.21a4,4,0,0,0,1.6,1.72c2.33,1.35,5.58.08,7.27-2.84S100.15,6.17,97.82,4.83Z"/><path class="cls-4" d="M84.36.11C81.74-.52,79,1.62,78.19,4.89a6.56,6.56,0,0,0,1,5.49l-1.73,2a5.42,5.42,0,0,0-.66.93,23.44,23.44,0,0,0-2.93,10.25c-.06,5.66,4-.76,4-.76s-1.21-5.83,1.63-9.34c1.12-1.4,1.07-1.26,1.29-1.73a3.71,3.71,0,0,0,.75.27c2.61.63,5.37-1.51,6.16-4.78S87,.74,84.36.11Z"/><path class="cls-5" d="M80,34.06c7,6.09.93,11.93,0,15.4-.34,1.23-1.49,2.85,5.55,13.13,8.47,12.36,7.1,30,.6,43.06-2.19,4.42-9.24,9.9-12.12,9.91-10,.06-11.9-2.53-20.72-2.53-4.1,0-15.16.65-18.63,1.51-8.81,2.19-31.37.91-34-1.88s3-1.11,5.55-2.22c2.07-.89,12.21-7.26,15.17-10.36,7.77-8.14,21.46-7,23.31-7.4,3.81-.76,19.61-3,20.71-13.3,1.15-10.75-3.14-23.84-2.73-30.76s2.17-11.36,3.93-13S76.12,30.65,80,34.06Z"/></g><g id="EYE_L"><ellipse class="cls-6" cx="95.76" cy="10.54" rx="5.18" ry="4.07" transform="translate(45.57 92.77) rotate(-64.88)"/><ellipse class="cls-7" cx="96.87" cy="9.8" rx="2.96" ry="2.59" transform="translate(67.11 102.51) rotate(-77.98)"/><circle class="cls-8" cx="95.95" cy="7.76" r="0.93"/></g><g id="EYE_R"><ellipse class="cls-6" cx="83.92" cy="6.1" rx="5.18" ry="4.07" transform="translate(56.36 85.6) rotate(-75.03)"/><ellipse class="cls-7" cx="85.43" cy="5.66" rx="2.96" ry="2.24" transform="translate(62.1 88.03) rotate(-77.98)"/><circle id="EYE_R-2" data-name="EYE_R" class="cls-8" cx="85.22" cy="3.32" r="0.92"/></g></g><path class="cls-9" d="M150.67,67.45A7.24,7.24,0,0,1,154,66q2,0,4.89,3.55a5.88,5.88,0,0,1,1.54,3.48q0,2.55-3.68,4.76a15.92,15.92,0,0,1-9.38,2.68,17.42,17.42,0,0,1-6.14-1.17A22.24,22.24,0,0,1,135.39,76a16,16,0,0,1-4.49-5.73,17.88,17.88,0,0,1-1.74-7.93,17.36,17.36,0,0,1,1.74-7.81,16.21,16.21,0,0,1,4.46-5.66,21,21,0,0,1,5.83-3.28,17.21,17.21,0,0,1,11-.44,17,17,0,0,1,3.55,1.37l1.07.67c.81.54,1.42,1,1.84,1.28a5.1,5.1,0,0,1,1.21,1.3,3.2,3.2,0,0,1,.57,1.84A7.14,7.14,0,0,1,159,55.39c-1.6,2.45-3.15,3.68-4.62,3.68a7.8,7.8,0,0,1-3.62-1.47,5,5,0,0,0-3.55-1.14,6.3,6.3,0,0,0-4.09,1.61,6.1,6.1,0,0,0-.06,8.87,6.15,6.15,0,0,0,4,1.58,6.54,6.54,0,0,0,1.94-.27,4,4,0,0,0,1.21-.54Z"/><path class="cls-9" d="M184,45a14.22,14.22,0,0,1,11.15,5.09,18.28,18.28,0,0,1,4.46,12.47V74.35a21,21,0,0,1-.1,2.31,5.64,5.64,0,0,1-.6,1.74,2.87,2.87,0,0,1-1.78,1.38,12,12,0,0,1-3.42.4,11.29,11.29,0,0,1-3.31-.4,3,3,0,0,1-1.78-1.38,5.1,5.1,0,0,1-.64-1.77,23.14,23.14,0,0,1-.1-2.42V62.49a5.8,5.8,0,0,0-1.54-4.29,5.33,5.33,0,0,0-3.95-1.54,6.47,6.47,0,0,0-4.15,1.44,5.12,5.12,0,0,0-2.08,3.25v13a21,21,0,0,1-.1,2.31,5.43,5.43,0,0,1-.61,1.74,2.82,2.82,0,0,1-1.77,1.38,12,12,0,0,1-3.42.4,11.74,11.74,0,0,1-3.35-.4,2.79,2.79,0,0,1-1.77-1.41,5.78,5.78,0,0,1-.61-1.74,21.21,21.21,0,0,1-.1-2.35V34.21a21.3,21.3,0,0,1,.1-2.31,5.43,5.43,0,0,1,.61-1.74,2.81,2.81,0,0,1,1.77-1.37,11.68,11.68,0,0,1,3.42-.4,11.39,11.39,0,0,1,3.35.4,2.78,2.78,0,0,1,1.77,1.4A5.78,5.78,0,0,1,176,32a21,21,0,0,1,.1,2.31V49.09C178.36,46.37,181,45,184,45Z"/><path class="cls-9" d="M204.94,50.76a19,19,0,0,1,.1-2.31,5.64,5.64,0,0,1,.6-1.74,2.85,2.85,0,0,1,1.78-1.37,11.51,11.51,0,0,1,3.41-.41,10.59,10.59,0,0,1,2.85.34,4.88,4.88,0,0,1,1.74.8,2.93,2.93,0,0,1,.87,1.38,5.54,5.54,0,0,1,.34,1.54c0,.42,0,1.06,0,1.91V74.35a18.76,18.76,0,0,1-.1,2.31,5.38,5.38,0,0,1-.6,1.74,2.87,2.87,0,0,1-1.78,1.38,11.9,11.9,0,0,1-3.41.4,11.64,11.64,0,0,1-3.35-.4,2.84,2.84,0,0,1-1.78-1.41,6,6,0,0,1-.6-1.74,19,19,0,0,1-.1-2.35Z"/><path class="cls-9" d="M250.23,44.73a10.42,10.42,0,0,1,3.22.41,2.76,2.76,0,0,1,1.7,1.37,5.46,5.46,0,0,1,.61,1.71,20.14,20.14,0,0,1,.1,2.28V78.23a15.78,15.78,0,0,1-5.36,12.43,17.8,17.8,0,0,1-12.06,4.73,20.33,20.33,0,0,1-9.72-2.48c-3.08-1.66-4.62-3.15-4.62-4.49A6.27,6.27,0,0,1,225.91,84l.2-.21a17.57,17.57,0,0,1,2-1.94,2.6,2.6,0,0,1,1.64-.53,3.24,3.24,0,0,1,2,.8,16.32,16.32,0,0,0,2.75,1.64,9.45,9.45,0,0,0,4.19.84,5.06,5.06,0,0,0,4.15-2,7.45,7.45,0,0,0,1.61-4.83v-2l-.13.14a2.19,2.19,0,0,1-.24.33c-.11.14-.26.29-.43.47a5.17,5.17,0,0,1-.64.54c-.25.18-.51.36-.8.53a6.73,6.73,0,0,1-1,.51c-.4.15-.83.3-1.27.43a7.91,7.91,0,0,1-1.51.3,13.77,13.77,0,0,1-1.71.11q-5.9,0-10.75-5.13A17,17,0,0,1,221,61.89,16.74,16.74,0,0,1,225.91,50q4.89-5.16,10.72-5.16a10,10,0,0,1,4.15.84,8.87,8.87,0,0,1,2.58,1.54,8.58,8.58,0,0,1,1.11,1.3,4,4,0,0,1,1.37-2.84C246.62,45.06,248.09,44.73,250.23,44.73Zm-11.86,23a5.2,5.2,0,0,0,4-1.77A5.72,5.72,0,0,0,244,62a6.07,6.07,0,0,0-1.54-3.92,5.21,5.21,0,0,0-4.22-1.84,5.3,5.3,0,0,0-4.16,1.81,5.81,5.81,0,0,0-1.6,4,5.49,5.49,0,0,0,1.7,3.95A5.65,5.65,0,0,0,238.37,67.71Z"/><path class="cls-9" d="M290,44.87a11.39,11.39,0,0,1,3.35.4,2.84,2.84,0,0,1,1.78,1.41,6,6,0,0,1,.6,1.77,19,19,0,0,1,.1,2.31V74.21a19.05,19.05,0,0,1-.1,2.32,5.64,5.64,0,0,1-.6,1.74,2.85,2.85,0,0,1-1.78,1.37,11.68,11.68,0,0,1-3.42.4,7.49,7.49,0,0,1-4.25-.9,3.6,3.6,0,0,1-1.44-2.65q-2.47,3.56-8,3.55-6,0-11-5.29a17.53,17.53,0,0,1-5-12.39,17.18,17.18,0,0,1,5-12.17q5-5.25,11-5.26a10.35,10.35,0,0,1,4.15.81,9.49,9.49,0,0,1,2.62,1.51,8.58,8.58,0,0,1,1.2,1.37,3.84,3.84,0,0,1,1.44-2.81C286.4,45.18,287.86,44.87,290,44.87ZM278,68.32a5.26,5.26,0,0,0,4-1.81,5.88,5.88,0,0,0,1.64-4,6.14,6.14,0,0,0-1.57-4,5.28,5.28,0,0,0-4.26-1.88,5.38,5.38,0,0,0-4.25,1.88,6.05,6.05,0,0,0-1.64,4.09,5.55,5.55,0,0,0,1.74,4A5.75,5.75,0,0,0,278,68.32Z"/><path class="cls-9" d="M320.51,44.93q6,0,11,5.3a17.21,17.21,0,0,1,5,12.13,17.48,17.48,0,0,1-5,12.42q-5,5.27-11,5.26-5.36,0-7.77-3.21-.54,3.28-5.76,3.28a11.34,11.34,0,0,1-3.35-.4,2.84,2.84,0,0,1-1.78-1.41,6,6,0,0,1-.6-1.77,19.05,19.05,0,0,1-.1-2.32v-40a19,19,0,0,1,.1-2.31,5.64,5.64,0,0,1,.6-1.74,2.85,2.85,0,0,1,1.78-1.37,11.63,11.63,0,0,1,3.42-.4,11.39,11.39,0,0,1,3.35.4,2.81,2.81,0,0,1,1.77,1.4,5.48,5.48,0,0,1,.6,1.78,18.76,18.76,0,0,1,.1,2.31V48.22A9.31,9.31,0,0,1,320.51,44.93Zm-5.86,21.65a5.34,5.34,0,0,0,4.12,1.8,6.05,6.05,0,0,0,6-5.82,6,6,0,0,0-1.6-4.06,5.43,5.43,0,0,0-4.29-1.84,5.28,5.28,0,0,0-4.26,1.88,6.14,6.14,0,0,0-1.57,4A5.88,5.88,0,0,0,314.65,66.58Z"/><path class="cls-9" d="M340.81,50.76a21.3,21.3,0,0,1,.1-2.31,5.43,5.43,0,0,1,.61-1.74,2.81,2.81,0,0,1,1.77-1.37,11.63,11.63,0,0,1,3.42-.41,10.7,10.7,0,0,1,2.85.34,4.88,4.88,0,0,1,1.74.8,2.93,2.93,0,0,1,.87,1.38A5.86,5.86,0,0,1,352.5,49c0,.42,0,1.06,0,1.91V74.35a21,21,0,0,1-.1,2.31,5.43,5.43,0,0,1-.61,1.74,2.82,2.82,0,0,1-1.77,1.38,12,12,0,0,1-3.42.4,11.74,11.74,0,0,1-3.35-.4,2.79,2.79,0,0,1-1.77-1.41,5.78,5.78,0,0,1-.61-1.74,21.21,21.21,0,0,1-.1-2.35Z"/><path class="cls-9" d="M386.1,44.73a10.38,10.38,0,0,1,3.22.41A2.81,2.81,0,0,1,391,46.51a5.67,5.67,0,0,1,.6,1.71,18,18,0,0,1,.1,2.28V78.23a15.78,15.78,0,0,1-5.36,12.43,17.76,17.76,0,0,1-12.06,4.73,20.3,20.3,0,0,1-9.71-2.48c-3.08-1.66-4.63-3.15-4.63-4.49A6.31,6.31,0,0,1,361.78,84l.2-.21a17.57,17.57,0,0,1,2-1.94,2.62,2.62,0,0,1,1.64-.53,3.24,3.24,0,0,1,2,.8,15.92,15.92,0,0,0,2.75,1.64,9.38,9.38,0,0,0,4.18.84,5.08,5.08,0,0,0,4.16-2,7.5,7.5,0,0,0,1.6-4.83v-2l-.13.14a1.54,1.54,0,0,1-.23.33c-.12.14-.26.29-.44.47a5.17,5.17,0,0,1-.64.54,8.54,8.54,0,0,1-.8.53,6.73,6.73,0,0,1-1,.51c-.4.15-.82.3-1.27.43a7.91,7.91,0,0,1-1.51.3,13.77,13.77,0,0,1-1.71.11q-5.89,0-10.75-5.13a17,17,0,0,1-4.86-12.09A16.74,16.74,0,0,1,361.78,50q4.89-5.16,10.72-5.16a10.07,10.07,0,0,1,4.16.84,8.87,8.87,0,0,1,2.58,1.54,8.46,8.46,0,0,1,1.1,1.3,4,4,0,0,1,1.38-2.84C382.5,45.06,384,44.73,386.1,44.73Zm-11.85,23a5.23,5.23,0,0,0,4-1.77,5.71,5.71,0,0,0,1.6-3.92,6,6,0,0,0-1.54-3.92,5.2,5.2,0,0,0-4.22-1.84A5.27,5.27,0,0,0,370,58.07a5.82,5.82,0,0,0-1.61,4A5.5,5.5,0,0,0,370.06,66,5.64,5.64,0,0,0,374.25,67.71Z"/><path class="cls-9" d="M425.83,44.87a11.42,11.42,0,0,1,3.36.4A2.82,2.82,0,0,1,431,46.68a5.44,5.44,0,0,1,.6,1.77,19,19,0,0,1,.1,2.31V74.21a19.05,19.05,0,0,1-.1,2.32,5.15,5.15,0,0,1-.6,1.74,2.83,2.83,0,0,1-1.77,1.37,11.68,11.68,0,0,1-3.42.4,7.53,7.53,0,0,1-4.26-.9,3.66,3.66,0,0,1-1.44-2.65Q417.6,80,412,80q-6,0-11-5.29a17.56,17.56,0,0,1-5-12.39,17.14,17.14,0,0,1,5-12.17c3.32-3.5,7-5.26,10.95-5.26a10.39,10.39,0,0,1,4.16.81A7.54,7.54,0,0,1,420,48.62a3.81,3.81,0,0,1,1.44-2.81C422.27,45.18,423.73,44.87,425.83,44.87Zm-12,23.45a5.3,5.3,0,0,0,4.06-1.81,5.88,5.88,0,0,0,1.64-4,6.15,6.15,0,0,0-1.58-4,5.27,5.27,0,0,0-4.25-1.88,5.42,5.42,0,0,0-4.26,1.88,6.1,6.1,0,0,0-1.64,4.09,5.55,5.55,0,0,0,1.74,4A5.75,5.75,0,0,0,413.84,68.32Z"/><path class="cls-1" d="M210.77,40.11a11.3,11.3,0,0,1-3.35-.4,2.84,2.84,0,0,1-1.78-1.41,6,6,0,0,1-.6-1.77,19.05,19.05,0,0,1-.1-2.32,19,19,0,0,1,.1-2.31,5.64,5.64,0,0,1,.6-1.74,2.85,2.85,0,0,1,1.78-1.37,11.56,11.56,0,0,1,3.41-.4,11.3,11.3,0,0,1,3.35.4,2.83,2.83,0,0,1,1.78,1.4,5.73,5.73,0,0,1,.6,1.78,18.76,18.76,0,0,1,.1,2.31,18.76,18.76,0,0,1-.1,2.31,5.35,5.35,0,0,1-.6,1.75,2.89,2.89,0,0,1-1.78,1.37A11.56,11.56,0,0,1,210.77,40.11Z"/><path class="cls-5" d="M346.77,40.11a11.3,11.3,0,0,1-3.35-.4,2.84,2.84,0,0,1-1.78-1.41,6,6,0,0,1-.6-1.77,19.05,19.05,0,0,1-.1-2.32,19,19,0,0,1,.1-2.31,5.64,5.64,0,0,1,.6-1.74,2.85,2.85,0,0,1,1.78-1.37,11.56,11.56,0,0,1,3.41-.4,11.3,11.3,0,0,1,3.35.4,2.83,2.83,0,0,1,1.78,1.4,5.73,5.73,0,0,1,.6,1.78,18.76,18.76,0,0,1,.1,2.31,18.76,18.76,0,0,1-.1,2.31,5.35,5.35,0,0,1-.6,1.75,2.89,2.89,0,0,1-1.78,1.37A11.56,11.56,0,0,1,346.77,40.11Z"/></g></svg>